<svg width="433" height="405" viewBox="0 0 633 605" fill="none" xmlns="http://www.w3.org/2000/svg">
  <g filter="url(#filter0_f_201_758)">
    <path
      d="M421.917 124.354C457.637 140.41 493.875 162.422 517.43 195.569C540.726 228.717 551.597 273 541.244 311.068C530.631 349.136 498.793 380.988 469.026 413.359C439.259 445.729 411.304 478.618 374.29 497.781C337.275 516.945 290.683 522.383 247.715 511.765C204.747 500.889 165.403 473.957 136.671 438.996C108.198 403.777 90.3382 360.53 87.4909 317.024C84.3848 273.777 96.2916 230.271 115.446 191.167C134.6 151.804 161.003 116.585 195.688 100.011C230.373 83.4376 273.341 85.2503 312.426 91.4655C351.252 97.6806 386.455 108.039 421.917 124.354Z"
      fill="#333E4F" />
  </g>
  <path
    d="M395.112 169.603C421.99 181.725 449.257 198.343 466.981 223.368C484.51 248.393 492.69 281.825 484.9 310.565C476.914 339.305 452.958 363.352 430.559 387.791C408.161 412.23 387.126 437.059 359.274 451.527C331.423 465.994 296.365 470.1 264.033 462.084C231.702 453.873 202.097 433.54 180.478 407.146C159.053 380.557 145.614 347.907 143.472 315.062C141.135 282.412 150.094 249.566 164.507 220.045C178.92 190.327 198.786 163.738 224.885 151.226C250.984 138.713 283.315 140.082 312.725 144.774C341.94 149.466 368.429 157.286 395.112 169.603Z"
    fill="url(#paint0_linear_201_758)" />
  <defs>
    <filter id="filter0_f_201_758" x="0" y="0" width="632.17" height="604.119" filterUnits="userSpaceOnUse"
      color-interpolation-filters="sRGB">
      <feFlood flood-opacity="0" result="BackgroundImageFix" />
      <feBlend mode="normal" in="SourceGraphic" in2="BackgroundImageFix" result="shape" />
      <feGaussianBlur stdDeviation="43.5" result="effect1_foregroundBlur_201_758" />
    </filter>
    <linearGradient id="paint0_linear_201_758" x1="315.423" y1="466.284" x2="315.423" y2="141.242"
      gradientUnits="userSpaceOnUse">
      <stop stop-color="#ED1E79" />
      <stop offset="0.9988" stop-color="#F15A24" />
    </linearGradient>
  </defs>
</svg>