<svg width="37" height="52" viewBox="0 0 37 52" fill="none" xmlns="http://www.w3.org/2000/svg">
<path d="M18.3068 6.13401C25.2752 6.13401 30.9717 11.9304 30.9717 19.0211V32.4708C30.9717 39.5615 25.2752 45.3579 18.3068 45.3579C11.3383 45.3579 5.64182 39.5615 5.64182 32.4708V19.0211C5.64182 11.9304 11.3383 6.13401 18.3068 6.13401ZM18.3068 0C7.96465 0 -0.386475 8.55385 -0.386475 19.0211V32.4708C-0.386475 42.9943 8.01995 51.4919 18.3068 51.4919C28.6489 51.4919 37 42.9381 37 32.4708V19.0211C37 8.49757 28.6489 0 18.3068 0Z" fill="url(#paint0_linear_229_10)"/>
<path d="M18.3069 26.1118C16.6478 26.1118 15.2651 24.7049 15.2651 23.0166V16.8263C15.2651 15.1381 16.6478 13.7312 18.3069 13.7312C19.9661 13.7312 21.3487 15.1381 21.3487 16.8263V23.0166C21.3487 24.7612 19.9661 26.1118 18.3069 26.1118Z" fill="#ED1E79"/>
<defs>
<linearGradient id="paint0_linear_229_10" x1="18.3007" y1="51.5169" x2="18.3007" y2="-0.0253791" gradientUnits="userSpaceOnUse">
<stop stop-color="#ED1E79"/>
<stop offset="0.9988" stop-color="#F15A24"/>
</linearGradient>
</defs>
</svg>
