<svg width="31" height="31" viewBox="0 0 31 31" fill="none" xmlns="http://www.w3.org/2000/svg">
<g clip-path="url(#clip0_216_112)">
<path d="M14.486 0.0242189C14.4194 0.030273 14.2075 0.0514623 14.0168 0.0665975C9.61846 0.463141 5.49865 2.83635 2.88933 6.48394C1.43635 8.51206 0.507044 10.8126 0.155907 13.2494C0.0317978 14.1 0.0166626 14.3512 0.0166626 15.5045C0.0166626 16.6578 0.0317978 16.9091 0.155907 17.7597C0.997426 23.5747 5.1354 28.4603 10.7475 30.2705C11.7525 30.5944 12.812 30.8154 14.0168 30.9485C14.486 31 16.5141 31 16.9833 30.9485C19.0628 30.7185 20.8246 30.2039 22.5621 29.317C22.8285 29.1807 22.88 29.1444 22.8436 29.1142C22.8194 29.096 21.6843 27.5734 20.3221 25.7329L17.846 22.3881L14.7432 17.796C13.036 15.2715 11.6314 13.207 11.6193 13.207C11.6072 13.204 11.5951 15.2442 11.5891 17.7355C11.58 22.0975 11.577 22.273 11.5225 22.3759C11.4438 22.5243 11.3832 22.5848 11.2561 22.6514C11.1592 22.6998 11.0745 22.7089 10.6174 22.7089H10.0937L9.95446 22.6211C9.86365 22.5636 9.79705 22.4879 9.75165 22.4002L9.68808 22.2639L9.69413 16.1947L9.70322 10.1225L9.79705 10.0044C9.84549 9.94083 9.94841 9.8591 10.0211 9.81975C10.1452 9.75921 10.1936 9.75315 10.7173 9.75315C11.3348 9.75315 11.4377 9.77737 11.5981 9.95294C11.6436 10.0014 13.3236 12.532 15.3335 15.5802C17.3435 18.6285 20.092 22.7906 21.4421 24.8339L23.894 28.5481L24.0181 28.4664C25.1169 27.752 26.2793 26.7349 27.1996 25.6754C29.1581 23.4263 30.4203 20.6838 30.8441 17.7597C30.9682 16.9091 30.9834 16.6578 30.9834 15.5045C30.9834 14.3512 30.9682 14.1 30.8441 13.2494C30.0026 7.43443 25.8646 2.54878 20.2525 0.738602C19.2626 0.417735 18.2092 0.196761 17.0287 0.0635705C16.7381 0.0333 14.7372 2.49036e-06 14.486 0.0242189ZM20.8246 9.38991C20.9699 9.46255 21.0879 9.6018 21.1303 9.7471C21.1545 9.8258 21.1606 11.5088 21.1545 15.3017L21.1455 20.7444L20.1859 19.2732L19.2233 17.8021V13.8457C19.2233 11.2879 19.2354 9.85002 19.2536 9.78039C19.302 9.61088 19.4079 9.47769 19.5532 9.39899C19.6773 9.33542 19.7227 9.32936 20.198 9.32936C20.646 9.32936 20.7247 9.33542 20.8246 9.38991Z" fill="white"/>
<path d="M23.7427 28.6147C23.6367 28.6813 23.6034 28.7267 23.6972 28.6752C23.7638 28.6359 23.8728 28.5541 23.8547 28.5511C23.8456 28.5511 23.7941 28.5814 23.7427 28.6147ZM23.5338 28.7509C23.4793 28.7933 23.4793 28.7963 23.5459 28.763C23.5822 28.7448 23.6125 28.7237 23.6125 28.7176C23.6125 28.6934 23.5974 28.6994 23.5338 28.7509ZM23.3824 28.8417C23.328 28.8841 23.3279 28.8871 23.3945 28.8538C23.4309 28.8357 23.4611 28.8145 23.4611 28.8084C23.4611 28.7842 23.446 28.7903 23.3824 28.8417ZM23.2311 28.9325C23.1766 28.9749 23.1766 28.9779 23.2432 28.9446C23.2795 28.9265 23.3098 28.9053 23.3098 28.8992C23.3098 28.875 23.2947 28.8811 23.2311 28.9325ZM23.001 29.0536C22.886 29.1141 22.8921 29.1384 23.0071 29.0809C23.0585 29.0536 23.0979 29.0264 23.0979 29.0203C23.0979 28.9991 23.0949 29.0021 23.001 29.0536Z" fill="white"/>
</g>
<defs>
<clipPath id="clip0_216_112">
<rect width="31" height="31" fill="white"/>
</clipPath>
</defs>
</svg>
