<svg width="37" height="33" viewBox="0 0 37 33" fill="none" xmlns="http://www.w3.org/2000/svg">
  <g clip-path="url(#clip0_216_96)">
    <path
      d="M18.5 19.8059C20.3213 19.8059 21.7978 18.3258 21.7978 16.5C21.7978 14.6742 20.3213 13.1941 18.5 13.1941C16.6787 13.1941 15.2022 14.6742 15.2022 16.5C15.2022 18.3258 16.6787 19.8059 18.5 19.8059Z"
      fill="#FFF" />
    <path
      d="M18.5 23.273C28.273 23.273 36.1957 20.2406 36.1957 16.5C36.1957 12.7594 28.273 9.72696 18.5 9.72696C8.72696 9.72696 0.804352 12.7594 0.804352 16.5C0.804352 20.2406 8.72696 23.273 18.5 23.273Z"
      stroke="#FFF" />
    <path
      d="M12.6487 19.8865C17.5352 28.3709 24.1162 33.7327 27.3478 31.8624C30.5794 29.992 29.2379 21.5979 24.3513 13.1135C19.4648 4.62909 12.8838 -0.732674 9.65219 1.13765C6.4206 3.00797 7.76218 11.4021 12.6487 19.8865Z"
      stroke="#FFF" />
    <path
      d="M12.6487 13.1135C7.76217 21.5979 6.42059 29.992 9.65219 31.8624C12.8838 33.7327 19.4648 28.3709 24.3513 19.8865C29.2379 11.4021 30.5794 3.00797 27.3478 1.13765C24.1162 -0.732675 17.5352 4.62909 12.6487 13.1135Z"
      stroke="#FFF" />
  </g>
  <defs>
    <clipPath id="clip0_216_96">
      <rect width="37" height="33" fill="white" />
    </clipPath>
  </defs>
</svg>